/* XPM */
static char *_f7cc050c98347d0e346fb8ca4609aeeYbSLq1Gc2R17MUUN[] = {
/* columns rows colors chars-per-pixel */
"64 64 252 2 ",
"   c #030402",
".  c #0A0403",
"X  c #030B03",
"o  c #0B0A04",
"O  c #06070A",
"+  c #0B050A",
"@  c #040A0A",
"#  c #0B0B0B",
"$  c #140400",
"%  c #1C0400",
"&  c #150B02",
"*  c #1B0A00",
"=  c #12090C",
"-  c #011401",
";  c #001B01",
":  c #05130A",
">  c #0B130B",
",  c #0A1708",
"<  c #171306",
"1  c #0C0D10",
"2  c #130A12",
"3  c #0D1313",
"4  c #141812",
"5  c #230A00",
"6  c #260900",
"7  c #271604",
"8  c #371402",
"9  c #3B1D12",
"0  c #012302",
"q  c #062A09",
"w  c #123A15",
"e  c #182B0B",
"r  c #262509",
"t  c #392703",
"y  c #2C3504",
"u  c #373805",
"i  c #393012",
"p  c #1F3B21",
"a  c #2A3B24",
"s  c #4E1C00",
"d  c #471200",
"f  c #571C00",
"g  c #4A0A00",
"h  c #611C00",
"j  c #482906",
"k  c #552302",
"l  c #5B2401",
"z  c #592907",
"x  c #463708",
"c  c #57340B",
"v  c #4C3816",
"b  c #513814",
"n  c #4F2B15",
"m  c #622301",
"M  c #632A04",
"N  c #622C0A",
"B  c #6A2909",
"V  c #68330C",
"C  c #673415",
"Z  c #733513",
"A  c #672E13",
"S  c #643E24",
"D  c #1B5919",
"F  c #184E16",
"G  c #394815",
"H  c #245C1D",
"J  c #23551C",
"K  c #304D13",
"L  c #1D6418",
"P  c #23641D",
"I  c #276A1E",
"U  c #2B761D",
"Y  c #34611E",
"T  c #1C4E26",
"R  c #274A28",
"E  c #235B22",
"W  c #2D552D",
"Q  c #285927",
"!  c #33582A",
"~  c #2D5933",
"^  c #375838",
"/  c #344A32",
"(  c #296524",
")  c #2B6C24",
"_  c #2B652B",
"`  c #2D6A2A",
"'  c #246620",
"]  c #336D25",
"[  c #326A2B",
"{  c #3A6A26",
"}  c #2D7426",
"|  c #327424",
" . c #34732C",
".. c #347A2C",
"X. c #3C7A2C",
"o. c #387529",
"O. c #366A36",
"+. c #397833",
"@. c #2D6B34",
"#. c #454919",
"$. c #4D5018",
"%. c #78431B",
"&. c #604D15",
"*. c #46631E",
"=. c #465829",
"-. c #5B5C3C",
";. c #794824",
":. c #775638",
">. c #66532D",
",. c #486827",
"<. c #45752C",
"1. c #517330",
"2. c #3E5542",
"3. c #425645",
"4. c #795945",
"5. c #477A49",
"6. c #4D7D54",
"7. c #55784C",
"8. c #627B47",
"9. c #766F50",
"0. c #98552B",
"q. c #8A5536",
"w. c #9B5E34",
"e. c #975B37",
"r. c #884C2C",
"t. c #A35E34",
"y. c #A65E39",
"u. c #A35C2E",
"i. c #8A673D",
"p. c #9C633C",
"a. c #9D6B3D",
"s. c #976338",
"d. c #90703D",
"f. c #A46335",
"g. c #AB6435",
"h. c #A4643C",
"j. c #AB653B",
"k. c #A36A3C",
"l. c #AB6A3D",
"z. c #A96837",
"x. c #B16A3D",
"c. c #B1673D",
"v. c #945A45",
"b. c #895D47",
"n. c #A25E44",
"m. c #896846",
"M. c #9C6644",
"N. c #9D6B43",
"B. c #936B4C",
"V. c #9C6B4B",
"C. c #956747",
"Z. c #8D7348",
"A. c #987348",
"S. c #886956",
"D. c #956B56",
"F. c #8B7457",
"G. c #987457",
"H. c #A46542",
"J. c #AB6443",
"K. c #A46B44",
"L. c #AB6B43",
"P. c #A36C4A",
"I. c #AC6D4A",
"U. c #A4664A",
"Y. c #B26C44",
"T. c #B36C4C",
"R. c #AC714A",
"E. c #A87349",
"W. c #B3724A",
"Q. c #A56C54",
"!. c #A67353",
"~. c #B87A56",
"^. c #957667",
"/. c #C17951",
"(. c #368C2E",
"). c #36862D",
"_. c #348433",
"`. c #3B8635",
"'. c #368B34",
"]. c #3A8B35",
"[. c #3C863B",
"{. c #358B3A",
"}. c #3B8C3B",
"|. c #368639",
" X c #3C9335",
".X c #3C933D",
"XX c #3C9A3D",
"oX c #379236",
"OX c #338B33",
"+X c #428B3D",
"@X c #47893A",
"#X c #42943D",
"$X c #429A3D",
"%X c #45913A",
"&X c #55853D",
"*X c #3C8E42",
"=X c #3C8946",
"-X c #3D9343",
";X c #3D9A41",
":X c #3C944A",
">X c #3E984A",
",X c #369344",
"<X c #3E9651",
"1X c #428345",
"2X c #438D44",
"3X c #448B4A",
"4X c #498B4B",
"5X c #49854A",
"6X c #558845",
"7X c #419444",
"8X c #4A9443",
"9X c #439A42",
"0X c #43944A",
"qX c #4B944C",
"wX c #43994B",
"eX c #4B9A47",
"rX c #52944C",
"tX c #498551",
"yX c #4A8C53",
"uX c #488955",
"iX c #568957",
"pX c #489653",
"aX c #539558",
"sX c #648648",
"dX c #6A8851",
"fX c #4AA248",
"gX c #579065",
"hX c #619766",
"jX c #97905B",
"kX c #BD845D",
"lX c #B98364",
"zX c #B49273",
"xX c #C78A64",
"cX c #DA966C",
"vX c #D69B79",
"bX c #CA9A75",
"nX c #E69C73",
"mX c #E09365",
"MX c #C9A97C",
"NX c #D9A47B",
"BX c #E2A37C",
"VX c #E8A277",
"CX c #C98057",
"ZX c #BE9E82",
"AX c #D9A886",
"SX c #CDAB87",
"DX c #E5A784",
"FX c #F1AB82",
"GX c #D99D81",
"HX c #FAD2B2",
"JX c #FFE9C8",
"KX c #FFF1D4",
/* pixels */
"-X-X*X{.}.}.}. XXX$XXX.X-X>X:X-X,X,X,X-X-X-X-X7X*X*X7X}.'.}.].}.7X7X7X-X-X:X-X.X}.#X}.].}.}.7X-X:XwX*X7X7X%X8X]._.}.}.{.-X-X-X7X",
"-X:X-X}.{.{.}..XXXXXXX.X.X-X:X:X>X:X-X:X:X-X-X-X0X7X-X}.}._.+X+X0X*X-X0X0X-X*X0X0X}.{.}.}.}.0X7X=X=X*X0X#X8X}.]..X}.}.-X-X-X7X-X",
"-X:X-X*X{.'.]..X X$X$XXX X-X7X-X7X}.}.-X0X:X-X-X-X-X7X2X[.[.2X[.=X3X0X=X=XqXqX=X0XqX[.2X*X*X0X*X0XpXqX*X2X[.[.2X|.|.-X0X-X-X7X-X",
":X7X7X-X}.].].].(.#X$X X.X7X7X}.+X`.{.-X:X:X-X:X:XqX1X4X5X4X5.4X5X4XyXyXyXyXyXyX1X1X5X+.=XaX3X=XyX3X5X4XrX[.[.[.2X0X0X*X:XwX:X-X",
"7X-X7X7X.X}.].(.(. X X X#X#X.X{.+X`.{.-X:X-X-X:X0XyXyXiXiX5.6.6.6.iXiX5.5.6.5.O.Q ~ Q 5.5.O.@.tXtXaXyXE D @.4X3X=X0X0X:X:X:X-X>X",
"7X-X7X7X7X#X.X(. X(.(.$X$X}.].}.}.}.}.-X:X:X:X0X1XtXiXq 0 ; ; ; ; ; ; ; ; ; ; ; ; ; 0 W R ~ ~ T ~ 5.0 0 Q Q 0 tX3X=X0XpX:X,X-X:X",
":X-X7X7X7X7X#X X X X X#X.X].].}.{.}.-X-X:X:X0XyXhX; 0 - X X - X - - - - X X X X X - - X ; ; X 2.~ W ; ; W 0 0 Q aXpX=X*X0XwX:X-X",
":X-X:X0X-X-X7X#X X$X$X X'.].}.{.}.-X>X:X:X:X3XtX; ; X X X X X X X X X X X o @ o   o   X   , : X p ^ X p ; ; T Q D =XpX*X0X:X*X:X",
":X:X:X:X:X-X-X.XXXXXXXoX'.'.{.}.7X-X:X:X3X=X6.; ; X   o @ X @ X     O >     # 1 O O . . . o o X X : - X ; R W ~ E D pX*XqX*X0X-X",
":X:X:X:X:X:X-XXXXXXXXXoX{.}.*X-X-XqXqX=XyXO.; - X X . O @ # @ X O     O 1 1     O O O O O O O o   o > , 4 ; ~ ; F D qX0X7X0X-X0X",
"<X:X:X:X:X:X:X;X;X;XXX.X.X-X7X-X0X|.4XaXiX; ; - o o #   @   3 X   > O #   O 3 1 O O O O O O O O #   4 4 X X - 0 ; 5X3X*X7X0X-X-X",
":X:X:X:X:X:X-X.X;X;X;X.X-X:X7X-X7X2X4X5XF ; -       O #   #   X o .   . # @ @ @ @ O O O O O O O #   o : 2./ ^ R aX4X[.eX}.0X0X-X",
":X:X:X:X7X:X-X.X;XXXXX.X-X:X7X-X0X0XaXiX; ; X > #   # o     & < $ &   1     3   @ @ @ o O O O O   . 4 X 3./ R 5.1XqX8X8X7X-X*X0X",
"0X0X0X0X7X-X.X.XXXXXXX.X-X-X7X-X-X}.2XiX7.; X X o O     . 7 . * 5 * $ . .   @ @ @ o o o O O O O . # # : X ^ W E 4XeX#X#X9X.X:X:X",
"0X0X0X7X*X}..X.XXXXXXXoX.X-X7X7X>X_.1X5X7.; , X X #   & * % ^.D.S.^.$ * = .   # o o O O . . O O #   X : X R R E +X#X$XoX.XwX*X:X",
"7X7X7X*X{.].}..XXXXXXX.X.X-X7X7X{.{.*X1XiX; X X o   $ 7 F.B.C.Q.G.b.^.$ $ . =   O O O . . O O O o   X X X ; W E ) %X#X9X.X.X:X:X",
"0X0X2X[.{.].}..X$XXX XXX;X-X-X-X].7X_.2X[.6.; - . * n C.M.H.H.Q.U.C.G.7 . o . o O O O . o o o o X o O @ @ X ^ J ` 7X9XoX9X-X:X-X",
"7X7X7X*X{.].]. X$X$X$XoX X-X:X7X}.`._..X[.5.; - < >.8 s J.h.W.p.H.P.B.S r o o O + O O O @ X @ X o X O O @ X e !  ...9X X-XwX-X0X",
"-X7X0X7X}.'.]. X'.XX$X.X.X-X7X7X8X}.0X}.5XiX0 X . F.B.d g h.h.M.P.r.t 5 &   . o + + O O @ @ O . X o @ O O : X ! +.} 8X.X.X7X-X0X",
"-X:X0X7X-X}.].].). X$X$X7X7X7X2X2X2X0X=X5.R - X & S.B.!.e.0.W.N.C 8 6 i & & & . . O O O @ O O O   o O #   : X J +.} 8X8X.X}.-X7X",
"-X-X:X:X7X.X}.'..X XXX7X7X7X2X0X0XpX=XtXiX- X & $ 4.8 C.P.R.p.M 8 G.F.9.9.& . = . O O @ @ O + + . o + +   : ; F  ...8X.X}.{.}.+X",
"-X-X-X:X7X7X.X'.oX'.'..X7X7X2X0X*X2XuXgX; X o $ * F.6 :.M.H.K.K.B.Z.6 F.F.9 * . . O O @ O O + + o . + . O X X J ] | 8X'._.}._.7X",
"-X-X-X-X7X7X.X X'.'.'..X7X7X*X0X7X3XgXq - 4 . 7 :.F.zXJXV.P.s.a.A.6 m.JXF.^.% 7 . . o @ O + + + + . + O o - - Q  .| +X_.'.}.}.#X",
"-X-X-X7X7X-X-X.X;X$X;X.X-X-X0X0X*X3XtX; X o * 4.F.i.KXHXQ.M.k.k.C.&.JXHXB.S.F.% $ . X o O O + + . = + 1   - 0 Q  ..._.}.}.{.9X.X",
"}.{.}.7X7X}..X9X;XXX;X;X-X-X:X:XwX1X6.X # & $ >.m.G.m.V.Q.l f.k.A.i.JXi.V.B.G.5 $ o o   O # + + =   #   : - W [  .} 7X_.}..X7X#X",
"}.{.|.}.7X7X7X.X9XXX;XXX-X-X-X:X}.aXq 4 o $ 5 :.A.i.!.!.s P.z.f.a.N.p.K.M.V.D.5 $   o o O O O # O 2   X : ; ! O. .} }._.-X.X7X.X",
"{.}.{.{.}.7X7X.X9XXXXXXX-X-X:X-XqXyX0 X . $ 6 SXlXN.s.k q.R.t.l.k.k.p.h.L.P.B.6 * . . o . @ . .     1 # X ; Q  .....{._.0X-X-X.X",
"}.}.}.{.`.{..X7X9XXXXXXX;X-X:X7X3XtX; X o $ $ zXN.N.p.V Z H.z.j.f.L.Y.j.H.P.B.6 7 o . O . @ o   o . X X - ; ~  .X.} }.}.7X7X-X.X",
"7X}.[.}.{.'.}..XXXXXXXXX.X.X-X*X4XtX; X   $ 5 zXbXK.K.l M l h.h.z.f.j.j.0.P.B.5 < . O + + O o o O   :   ; R Q +...} 2X7X*X0X.X7X",
"7X.X-X-X}.'.'..XXXXXXXXX.X].{.[.4XtX0     . $ SXbXH.H.L.P.H.T.h.L.Y.t.j.L.M.ZX^.$   = 2 + .   o   O o : X W O.[ ....qX0X[.*X{.}.",
"-X7X7X7X}.'.}.$XXX$X$XXX].].`.[.4XiX- -   < * ZXAXp.K.p.lXe.r.~.j.0.Y.L.K.AX:.$ . . 2 2 + +   X #   : X X R O.+...+X3X3X2X[._.'.",
"7X7X-X-X7X9X-X X$X$X$X X].].}.2X2X5Xw ; X o . >.zXlXM.P.vXGXvXDXh.l.z.h.NXSX% $ = = = + + + o o   o     W R [ ....eX+X2X0X[.}.}.",
"7X7X7X7X:X-X-XXXXXXX$XoX'.'._.7X8X5XtX; ; - o $ 9 zXb.Q.v.lXQ.q.K.k.w.DXAX8 * . # + = . + . @   + o X ; W E +.} %X#X7X7X0X2X[.[.",
"0X0X7X-X:X-X-XXXXXXXXX X].'.}.7X[.3XpXaXT - X   $ 8 4.D.r.v.Q.v.M.K.H.AXn n $ . . . . 2 .   o o O   , X R E +.} 7X#X#X7X7X7X*X[.",
"7X7X-X-X:X-X-X.XXX$X X].].}.-X7X0XwX:X=XiX; ; -   & n G.C.Q.U.U.K.p.I.N k % & X   #   .   o o O O >   ; R _ ` _.7X7X-X-X-X7X7X*X",
"0X-X-X:X:X-X-X-X9X$X'.'.}.{.7X7X*X*X:XpXtX6.q ; e -.v j C U.n.U.H.q.B A B.m..     X X o X     o O   - X W O.} }.7X-X-X-X:X7X0X-X",
":X:X:X:X:X-X-X-X9X9X].]..X}.7X-X:XwX,XaXtXiX7.8.8.9.t c k m B h m m Z I.V.6 & o - X : -   > X X # X X w W O...0X7X-X:X:X:X:X:X:X",
":X:X:X:X:X-X-X-X9X9X.X}.7X-X7X0X:X,X0X1XiXsX=.y i x b c E.H.y.J.J.I.J.n.!.B.7 r r a R / 2.X , X X : X W Q ` qX0X-X-X:X:X:X:X:X-X",
":X:X:X-X:X-X-X.X9X7X#X.X7X7X-X0X0XpX4X6XdXu t b j >.i.E.w.h.Y.j.L.y.J.T.U.C.b i #.=./ R R ^ ; X X - q W F aXeX7X-X-X-X:X:X:X-X:X",
":X:X-X:X-X-X.X.X#X.X7X.X-X0X*X0X3XrX6X8.y j G.i.N.N.K.p.K.l.l.z.h.Y.y.J.H.P.C.b v < G ! R ^ ^ ^ p - ~ E 5.qX}.7X.X-X-X-X-X7X7X0X",
">X-X7X-X}.#X.X$X9X$X.X.X}.0XwX2XrX6X8.#.>.A.N.H.L.t.L.s.h.z.z.l.h.L.y.y.Y.H.K.N.i.j u =.J O.! O.~ w Q E qX2XeX.X7X.X}.{.{.*X7X7X",
":X-X}.}.].%X X#X.X$X.X{.{.7X{.qX5.sXu x Z.s.K.h.l.Y.t.L.h.l.g.z.k.l.Y.c.j.j.h.p.N.Z.u G ! ! ! _ O.Q E D qX8X9X.X.X.X}.{.}.}.7X0X",
"-X-X{.].].%X$X#X$X9X.X{.}.{.*X5XdXr u m.A.a.l.h.f.t.j.L.k.k.l.s.z.l.f.j.x.g.j.L.K.N.>.u { { [ [ _ _ D L 7X7X$XXX X].].].}.+X7X7X",
"0X7X{.].].].$X#X$X X{..X-X_.+X6Xy b A.i.s.K.l M W.h.L.s.K.w.Y.l.l.f.x.g.u.j.j.j.h.a.Z.u 1.] <.) ( ' D _.8X.X$X$X].'.'.{.#X7X7X7X",
":X0X}.}.].(.#X$XfXXX-X:X[.[.+.8.u :.m.E.s.%.l NXDXw.h.I.p.k.w.g.f.z.f.z.l.l.j.j.j.p.Z.$.,.<.] ) ` L P 8X8X.X$X X].'.'.}.7X7X7X7X",
":X:X-X}.].(. X X'.'.wX7XqX@X6Xy x C.!.p.N.k E.NXH.J.I.f R.p.L.l.g.x.f.g.l.z.l.l.j.R.i.u 1.{ X.D P ' P +X%X9X9X'.].'.}.-X7X-X-X7X",
":X:X-X}.].].(. X9X-X0X*XqX6XdXy c !.H.I.l V NXNXJ.T.f h K.h.L.t.x.g.l.f.s.K.l.h.L.p.MXjX*.{ ] ] D ( ) `.+X#X#X'.'.'.}.-X:X-X-X:X",
"<X:X:X}.]. X(.oX.X-X*XqX5XiXe i B.M.H.B l NXNXK.J.e.B 0.h.xXf.c.t.Y.f s.NXk.h.h.h.kXMXu ,.<.o.D H ` +.+X].}.#X}.'.{..X:X:X-X-X>X",
"0X-X:X9X.X].]. X X-X-X2X6X8.u m.B.P.V M 0.BXR.P.M.N l H.xXBX/.g.y.B M NXAXK.h.H.H.NXzX$.,.] ..D P ) +X].].#X#X'.].}.-X7X7X:X-X-X",
"0X-X-X-X.X.X#X9X9X.XeXrX6Xy t G.V.q.l M xXDXh.p.M.l C P.BXcXg.j.H.l vXAXK.p.W.L.K.MXjXG ,.] ] P } L ).}.#X$XfX.X.X.X7X7X7X-X-X-X",
"0X7X-X-X.XXX$X9X.X.X+X&X8.u G.b.C.z l M.R.h.h.I.h.B I.DXBXw.I.h.B Z BXkXh.h.y.H.s.MXu G Y ] ) ) ) I L #X].eX.X-X.X-X7X7X7X-X-X-X",
"-X:X:X-XXXXXXXXX9X+X6XsXu >.m.V.k N k P.K.w.W.h.0.f FXcXxXI.K.M l DXBXh.l.W.z.p.A.t G { {  .] ] ) ..) `.7X#X9X9X;X7X-X7X7X7X7X-X",
"-X:X-XXXXX;XXXXX.X8XsXG u m.G.z N s ;.P.M.K.h.j.j.j.VXFXH.e.%.z vXBXcXj.y.j.f.a.&.u Y { )  .(  .) ..) ..#X XXX.X-X-X-X-X-X7X7X7X",
":X>X:X.XXXXXXX;X8X@XsXu Z.B.V.s s C.e.M.P.R.h.j.x.cXVXz.H.P.C q.NXNXj.x.g.j.k.A.u *.<.X.} ..] J  . .I +X#X9X9X;X.X.X-X-X*X-X-X7X",
"-X:X7X.X.XXXXX9X8XsXy &.B.V.s z C V.C z %.K.h.L.j.cXVXR.w.k f AXNXz.Y.0.l.z.s.j $.*.] X.} } [ H [ P ) [.#X.X9XXX.X.X-X-X}.}.}.}.",
"{.{..X#X#X.XXXeX6X,.u A.V.q.k z V.M.;.l M Z p.K.h.R.H.q.l M DXxXK.f.f.Y.f.a.d.x ,.<.X.} } ..H J H [ ' 2X_.9XoX9X.X;X9X-X}.|.{.{.",
"{.{.}.#X8X#X%X%XsXG x C.P.M.C ;.N.V.M.P.M l M V P.M.V.l l s.BXh.L.w.l.h.a.E.t #.*.{ X.| ) H E E H H ) +X}..X.X;X.X.X9X7X}.{.}.}.",
"{.{.].+X%X%X8X6X1.u zXP.U.P.s c V.M.P.s.R.p.l l C !.k z V h.f.z.j.W.s.K.A.t u *.<.o.X.| ( H H J Q F ` ' }.].XXXX;X.X.X7X7X-X}.{.",
",X{.`.`.@X@X%X6X=.$.AXe.R.p.N.z s P.p.K.w.w.R.z z b.z z P.h.z.g.l.w.R.a.i.u #.1.1.<.X.X.] [ _ Q Q E ( P [..X#X9X9X.X.X7X0X0X-X{.",
"-X,X{.[.@X@X@X6XK u MXDXh.I.p.;.N N R.p.L.L.K.M.z z k r.p.l.g.g.L.w.H.N.j x #.,.o.o.| o.I [ [ _ D ( D ) ..].9X$X9X#X.X-X-X-X7X:X",
"-X-X7X+X`.`.@X&XK u MXNX~.L.p.p.l l %.K.L.h.w.P.!.z C P.h.z.j.x.h.L.p.c t u *.<.o.X.| X.I ) O._ E E D ) ..).9X#X9X.X7X7X-X-X:X:X",
"-X-X7X7X}.`.`.@X,.u c NXBXj.L.h.K.M N r.h.K.I.L.p.R.h.L.h.Y.t.l.h.h.M AXSX>.1.{ | ).| | I P ` _ @.J D ) I %X].$X#X.X-X7X:X:X:X:X",
"-X-X7X7X.X}.].@X&Xy x NXBXnXCXY.H.P.l r.H.K.h.t.Y.j.l.l.l.BXDXw.L.m NXvXSXt 1.<.U } U U U L ) ` _ E D P L %X).#X#X.X-X7X:X:X:X:X",
"7X-X-X-X7X.X}.@X1.dXx k W.VXnXnXh.P.f N r.K.J.VXnXcXVXnXVXBX~.M M W.DXAXB.x ,.{ | } U U | D ' ` _ _ [ D } `.%X$X9X#X7X7X-X-X:X>X"
};
