/* XPM */
static char *e7e5a89d7f474584a6e6b9d85d2952ecf5WVnzdClX0mJKGo[] = {
/* columns rows colors chars-per-pixel */
"64 64 253 2 ",
"   c #020D00",
".  c #0C0C00",
"X  c #070500",
"o  c #1C0500",
"O  c #140D00",
"+  c #1B0C00",
"@  c #140400",
"#  c #021400",
"$  c #0C1400",
"%  c #021C00",
"&  c #0B1B00",
"*  c #131400",
"=  c #1B1300",
"-  c #131B01",
";  c #1B1A01",
":  c #1B1809",
">  c #230300",
",  c #290400",
"<  c #230C00",
"1  c #2B0B00",
"2  c #330C00",
"3  c #370900",
"4  c #231300",
"5  c #2B1300",
"6  c #241B01",
"7  c #2A1A00",
"8  c #271C0D",
"9  c #351400",
"0  c #381900",
"q  c #012300",
"w  c #0C2301",
"e  c #012A01",
"r  c #082D05",
"t  c #142201",
"y  c #162606",
"u  c #013403",
"i  c #093608",
"p  c #183B17",
"a  c #12370E",
"s  c #272706",
"d  c #372602",
"f  c #283A17",
"g  c #363617",
"h  c #2F2F0E",
"j  c #353721",
"k  c #441900",
"l  c #462805",
"z  c #493806",
"x  c #453717",
"c  c #593917",
"v  c #56320C",
"b  c #643C1B",
"n  c #673715",
"m  c #743A1A",
"M  c #6B370D",
"N  c #473D25",
"B  c #583D22",
"V  c #6A3C24",
"C  c #7D3D24",
"Z  c #0B4413",
"A  c #0B4A18",
"S  c #154819",
"D  c #13541C",
"F  c #10470E",
"G  c #24481B",
"H  c #2A4D17",
"J  c #184822",
"K  c #165622",
"L  c #264824",
"P  c #385728",
"I  c #395A36",
"U  c #2D4E28",
"Y  c #376837",
"T  c #307538",
"R  c #1B6122",
"E  c #48421C",
"W  c #57421C",
"Q  c #4F440B",
"!  c #66421C",
"~  c #79481C",
"^  c #474626",
"/  c #5D4424",
"(  c #564728",
")  c #585432",
"_  c #4E5231",
"`  c #674626",
"'  c #784925",
"]  c #67572A",
"[  c #76542C",
"{  c #665834",
"}  c #7C5C3E",
"|  c #785836",
" . c #614B36",
".. c #44683A",
"X. c #45763D",
"o. c #5A703E",
"O. c #78643B",
"+. c #6C653E",
"@. c #387A42",
"#. c #4C5E48",
"$. c #775D46",
"%. c #695E42",
"&. c #487C47",
"*. c #557849",
"=. c #587A55",
"-. c #4F6949",
";. c #6A6344",
":. c #7C6443",
">. c #766647",
",. c #677B59",
"<. c #736E51",
"1. c #667F61",
"2. c #924C1E",
"3. c #864B27",
"4. c #954D27",
"5. c #8B552C",
"6. c #89572B",
"7. c #94542B",
"8. c #9B542B",
"9. c #9C5A2C",
"0. c #965628",
"q. c #835C34",
"w. c #8B5B33",
"e. c #845C3B",
"r. c #8B5B3C",
"t. c #875536",
"y. c #945633",
"u. c #9C5C34",
"i. c #945B3A",
"p. c #975935",
"a. c #8F4F34",
"s. c #A2562B",
"d. c #A35836",
"f. c #8C633C",
"g. c #87633A",
"h. c #956239",
"j. c #A26239",
"k. c #8A5B42",
"l. c #975C42",
"z. c #846344",
"x. c #8B6646",
"c. c #936747",
"v. c #8D7653",
"b. c #A97051",
"n. c #388B2E",
"m. c #338634",
"M. c #3A8535",
"N. c #358A35",
"B. c #3A8C34",
"V. c #35863A",
"C. c #3B853B",
"Z. c #368B3B",
"A. c #3B8C3B",
"S. c #3C9335",
"D. c #3C933C",
"F. c #3C9A3C",
"G. c #379237",
"H. c #338D32",
"J. c #428B3D",
"K. c #44873B",
"L. c #41943C",
"P. c #42993C",
"I. c #49943C",
"U. c #50943F",
"Y. c #3C8D43",
"T. c #3D8D49",
"R. c #3B8845",
"E. c #3D9344",
"W. c #3D9942",
"Q. c #3D944A",
"!. c #3A9748",
"~. c #3B9152",
"^. c #438C44",
"/. c #4A8D45",
"(. c #44854B",
"). c #4B854B",
"_. c #448C4B",
"`. c #4B8B4C",
"'. c #478444",
"]. c #52844D",
"[. c #548C4C",
"{. c #578849",
"}. c #429344",
"|. c #4B9345",
" X c #439A43",
".X c #43934B",
"XX c #4A934B",
"oX c #44994B",
"OX c #4A9B4A",
"+X c #529449",
"@X c #4C8452",
"#X c #4C8C52",
"$X c #468B55",
"%X c #548353",
"&X c #538C53",
"*X c #5A8C54",
"=X c #598859",
"-X c #449352",
";X c #4A9352",
":X c #4A9855",
">X c #539353",
",X c #58955B",
"<X c #64865A",
"1X c #609353",
"2X c #5D8D63",
"3X c #719066",
"4X c #50A354",
"5X c #919472",
"6X c #AD9774",
"7X c #999462",
"8X c #C69F7C",
"9X c #CAA67B",
"0X c #D8AB77",
"qX c #D5B37B",
"wX c #B6AA89",
"eX c #B9B695",
"rX c #AEB28A",
"tX c #A1A891",
"yX c #C9A888",
"uX c #D5AC87",
"iX c #D2B48A",
"pX c #CFB595",
"aX c #E3BB93",
"sX c #C8AE90",
"dX c #BDCEAE",
"fX c #DBC78B",
"gX c #D9CC9A",
"hX c #D7CD95",
"jX c #E9CC9A",
"kX c #E9D998",
"lX c #F6DA9A",
"zX c #EECC92",
"xX c #ECE19B",
"cX c #F2E49C",
"vX c #DBD8A6",
"bX c #DADAB5",
"nX c #CFCEAE",
"mX c #ECDCA4",
"MX c #E8D9A8",
"NX c #F6DAA6",
"BX c #E7DAB4",
"VX c #FADAB4",
"CX c #EECCA4",
"ZX c #DBE1BB",
"AX c #E9E3A5",
"SX c #F6E3A7",
"DX c #E8E3B9",
"FX c #F6E8B6",
"GX c #FAF1AC",
"HX c #EBDAC2",
"JX c #DAE5C4",
"KX c #D4F0C8",
"LX c #E8E2C6",
/* pixels */
".X.XQ.!.!.!.!.!.Z.^.M.K./.J..XE.T..X`.&X].].*X'./.}.E.!.!.Q.T.-XQ.Q.!.E.E.}.E.E.E.E.!.E.D.B.B.A.Z.Q.Q.Q.Q.}.}.N.B.B.N.A.}.}..XY.",
".X.X.XQ.!.!.!.E.E.}.J.J.M.C..X^.;X(.%X].q G %X].^.XX}.E.E.Q.T.~.Q.Q.E.E.}.D.D.E.E.!.E.Z.Z.B.B.m.Y.!.!.!.E.E.}.Z.N.B.N.A.}.}..XQ.",
"}.}.}.}.}.}.E.E..XE.Y.E.Y.oXoXR.@X%X*.% % w -.%X&X@X(.;X.X.XZ.E..XE.Y.}.L.D.D.D. X}.E.Z.A.Z.Z.D.E.Q.Q.E.E.E.}.D.B.B.N.B.A.A.}.Q.",
"}.E.A.C.J.^.}.}.Y.oXoXY.T._._.).=.# $ - g   # % U =X%X).>XC.4XA..XZ.Z.D.D.L.L.L. XD.Z.Z.A.Z.D. XE.Q.E..X.XE.D.L.L.L.B.N.N.Z.E..X",
" XD.A.M.M.K.^.}.OXm.Q.-X;X`.*XF $ = d x ( ( * - # w % I &.`.^.}.}.V.m.B.B.S.L.P.S.}.Z.m.A.E.}.}.E.E.E.E.}.E.D. XP.P.S.B.B.Z.E.E.",
"E.D.A.C.C.K.K.A.E.oXoX_.'.1X# $ = :.c ! c c / E ( . * # % *XK.XX}.A.N.B.B.B.S.P.P.P.L.D.}.}.E.E.}.E.E.Z.Z.Z.Z. XL.P.S.D.D.D.E.!.",
"E.E.E.A.A.A.C.A.Y.Y._.'.=.# = :.g.g.M m M ~ v ! c W ( s t q )._._.}.Y.A.B.S.S.S.P.S.D.L.}.Z.V.A.E.E.D.N.Z.Z.B.L.S.P.S.D.E.E.E.!.",
"E.E.E.E.Z.Z.R.Y.C.`.[.r $ = } e.w.5.9.0.0.2.h.~ M n ` c E # % =X_..XQ.A.Z.G.S.S.F.P.P.D.A.A.A.A.Y.E.}.Z.A.D.N.G.P.P.G.D.E.E.Q.E.",
"Y.OXY.!.!.E.R.C.).{.q w = | r.i.7.0.0.0.j.2.9.5.5.~ M ! / x * % %X(.;XT.E.G.G.P.P.P.L.B.Z.Z.A.A.}.}.}.E.A.N.B.G.G. X XD.E.E.Q.!.",
".XV.!.Q.R.-X>X&...w & s :.x.r.3.0.0.9.0.7.j.5.h.6.w.~ n v ` x . % ,X#XR.Y..XN.W.F.S.B.B.M.A.A.Y.E.E..X.XE.A.N.B.G.P.E.D.E.Q.Q.Q.",
";XT.!.!.T._.X.<X& . >.O.{ } e.h.u.3.u.y.i.r.e.r.f.q.q.f.' n V  .& # 2X(.:XoXE.W.F.S.n.B.B.M.A..XE.Q..X.XE.D.Z.B.D.F.D.D.}.}.Q.oX",
"_._.-XT.:X).3X  = :.O.:.O.l 9 ' w.y.r.t.c.V 3 2 , l f.[ q.' n b h w % &X(..XE.Z.F.H.n.B.J.J.}..X.XE.E.E.E.E.D.D.F.D.G.D.}.E.Y.Q.",
"_..XQ.Q._.&XH * d } :.c 5 o 1 9 k x.} z.0 > , , , , < g.| r.m ' ( s & ..).`..X XD.S.n.B.L.}.}.Y..XE.E.E.E.E.E.W.F.F.S.D.}.A.Z.Y.",
".X.X!.R._.].& O :.z.$.5 5 x.8X1 5 d { 7 o 5 yXpXyXv.o < c f.a.n c ^ $ % ].`.C.}. XD.S.S.L.}.}.Y..XE.E.E.E.E.D.D.F.F.S.G.D.Z.Z.A.",
"}.Y.!.oX_.*X& ^ | x.> < c pXyXaX+ O - . d MXiX9XyXaX7 4 5 , t.l.e.c E - % {./..X XP.P.L.L.E.}..XE.E.E.!.E.D.D.D.S.F.S.S.B.N.Z.A.",
".XE.Y.-X_.F & ;.$.c > z.iX9XuXCXwX; - $ AXmXNXNXCX9XyX6X< 1 } k.t.! W - % {.XX}.D.D.L.L.Z.m.Z..X.X_._..X`././.|.J.|.L.C.N.N.C.L.",
"E.oXR.[.].w # <.$.1 , yXuXqXzXNXmXgXd d xXxXxXkXlXzX0X0XuX1 < x.r.n ` = w ).;XE.}. XL.B.M.N.}.Y.>X&.Y q q % % % q G `.T _.C.J.I.",
"T..X#X%X<X# - ;.:.> 1 CX9XqXlXlXkXSXkXfXGXxXkXcXlXlX0X0X9Xb.@ 0 r.i.c s & X.`.XXL.OXB.B.M.A.m.XX=Xi % & - * = ; * & q %X&.^.J.I.",
"$XT.&X=.<X$ * >.x.5 1 jXNXNXSXcXcXxXkXkXkXAXkXkXlXlXlXqX9XyX7 < r.r.[ 4 $ w X.[.+X|.M.L.M..XY.&Xp y . N <.$.:.>.;.* # =.%X&X|.J.",
"-X:X&.p # - O { | l + FXmXkXSXkXxXkXcXSXAXkXhXmXkXNXzX0XuXiXo > e.r.> @ ; & % P {.|.J.B.A.T &XG & ; 6 <.$.$.$.:.%.h $ # =X].`.XX",
":X(.=X% $ . 7 d :.d + gXMXDX] = kXcXfXSXmXiX= Q mXmXFX9XiX6X< c z.9 1 BXwXrX- # {./.M.V.C.>XS % $ N <.5 < 4 @ 6 <.;.h t % *.;X^.",
"_.XXX.# 5XwXo 0 :.] 7 hXDXBX= = Q kXGXmXmXv.= 4 FXMXCXjXiX< 1 z.} 0 < BXpXeX5X& H [.|.}.R.,X# & ^ _ O O * $ - #   t 5Xf % e ).#X",
"}./.e w eXsX+ 7 :.x = 6XDXDXO 4 fXlXjXjXNXiX5 7 mXFXMXNX< < 9 | e.0 < BXLXeXrX& e {.C.}.;X% # _ _ y   -.<X<X].&.i % G KXY q @.(.",
"Y.XXq % rXLX+ 5 >.d 4 6 vXBXv.+ fXSXNXVXNXCX5 6XmXmXgX4 1 l g.g.e.0 < BXDXnXrX& q [.^.XX`.q y U ^ & & =X@X).`.|./.i q q 3X% q #X",
".X;XZ q - tX@ h >.>.O = 7XvXmXiXNXuXaXaX9XaXjXlXSXmX7 + v g.e.e.e.c 4 d eXbX& % {.{.XX.X).% & _ _ # r =X#X_.XX|.I.[.F q q % S &X",
".X;X@Xe % $ : 8 >.g = O.AXAXkXlXaXuXyX8XuX9XNXlXlXkXmX< < c q.q.w.g.+ = & # % o.{././.XX`.e   ^ ^ - G =X(.XX^.|.+XK.K.&X&.&.,X).",
"oXY.#X,Xa   y j ;.O + FXhXSXSXkXaXyXaXyXuX9XSXzXlXkXNXVX1 > [ f.w.q.O.6 - w {.{.{./.}./.&X# & g ^ * y %X,X^.|.J.U.+XJ.^._._.;X`.",
"Y..X;X&.=X%X# # <.* = MXFXAXkXSXVXaX> 1 yXiXjXlXSXkXiXsXCX> 2 6.6.h.O.+ - *.{.{./.|.}.^.`.&.w g ^ . t e &X/.+XJ.K.I.OX}.oXoXY.Y.",
"}.D.L.XX'.&.u % # ; = BXMXjXSX7XVXHX< < BXBXSXlXkXlX9XyXpX9 2 w.9.3.f.] = & P {.+XXXOX}.'.*X% f ;.<.$ # *X`./.|.I.S.D.E.!.Q.!.!.",
"}..XD.D.OXJ.>X&.% - X LXBXFXQ + gXHX+ = eXgXFX< 5 SXyXyXyX> 2 w.u.9.5.! W - # ].'./..XOX/.&X% % x { h - a ]./.|. XP.D.D.Q.E.E.!.",
"_.R.oXZ. XOXJ.[.F & $ rXBXMXSXgXd O : . $ * ] z fXNXyXyX> 9 ! 5.2.9.7.' ! = t % >XXX}.Y.^.'.,X% = v.%.; # q XXL.S.G.D.}.Y.A.^.}.",
";XY.E. XG.P.}.|.{.r & $ eXDXAXvXd = O = $ ; 7XmXmXCXyX> 9 ` h.5.s.8.y.6.b / E % % >XXX^.>X`.(.*X* @ <.;.g % q |. X XD.A.C.C.^.}.",
"^.E.D.F.F.G. X|.[.].q % w - DXDXDXBXVXVXMXMXAXAXmXVX, 2 b.t.p.0.s.8.7.6.' c ` 6 $ w *.].`.`.#X&X,.. 6 ;.+.y q [.}. XL.B.B.M.Z.Q.",
"M.B.G.F.F.F.L.J.^.;X&Xi % & eXbXBXMXVXaXjXfXAXvXNXo 3 V r.6.5.0.8.4.h.' ~ ! v ` = $   &.=X)._.#X=.f * ) >.) & H |.}.B.n.M.A.E.Q.",
"M.B.B.F.F.F. XD.XX_.`.,X% & ; = ; 4 > > < 4 6 + > 2 v x.1 2 f.6.7.j.M 2 > c.n b W ) t # %X#X:XR.$X%X# . ;.E & q *XK.M.M.K.J..XQ.",
"J.B.N.S.S.S. X}.Y._.;X&...  E 6 O 6 l [ ` ] d W k n k.x.> < | 6.p.m ' 2 2 q.c.' ! x ; # =X)._.-X$X=Xq - { ^   % {.K.M.K.J.^..XQ.",
"A.B.N.S.S.S.P.D.oX.X;X&X*.% ) O.O.g.| } :.{ O.O.t.l.t.k.> d ! ' w.t.c > 2 x.w.w.n ` x * U =X^.-X~.$X..# ) ^ - w ].'.C.J.J.^..XQ.",
"}.A.N.B.n.B.L.D.E.Y._.(...# +.{ q.} z.5 4 O + } l.a.i.k.2 0 b n h.3.` 2 , e.a.y.' n / O & =X&X;X$X@X=.# g ^ & % ].^./.}.}.}..X.X",
"}.}.Z.B.B.B.P.D.E.Y.;X&XH & + z.q.f.} 4 X g s l t.a.l.t.2 1 n m i.t.V , , x.y.u.7.p.b  .O % &.).%X<X& $ ;.t % U `..X}.E.}.}.E.oX",
"E.}.}.}.L.L.}.D.E.:X_.).P * 9 e.w.f.o = ,.,.. + e.h.t.r.1 9 V 3.y.y.b , 1 e.y.0.8.7.t.c B * # {.*.# $ h f % e `._..XE.E.E.E.!.Q.",
"E.E.E.}. X}.}.}.E.:XR.,X  = e.r.[ c = & =.=Xf ; [ g.q.g.> 9 V l.u.y.n 1 o x.5.9.0.u.i.n V x * t * = %.) # e )..XQ.!.!.E.!.E.!.E.",
"E.E.E.E.}.}.}.}.XX_.`.F & ( t.e.c ( $ G 2X%X,.* z q.g.q.> 9 c.t.8.u.b 1 > x.6.0.9.4.y.l.V ` @ + = ;.^ & # &XR.OXoX!.E.E.E.E.!.E.",
"Q.E.E.E.D.D.}.^._.`.&X% $ :.e.r.W h & =.=.<X^ = [ h.q.g.l v > r.7.7.b ` 0 o h.0.0.9.8.a.C n [ 1 d >.  % <X`.}.E.}.}.}.}.}..XE.E.",
"Q.E.!.W.D.D.}.}._.`.].q - :.k.b ( - # <X=.<X= o 6.5.w.t.z.1 2 k.p.7.b c < 1 6.7.0.9.d.d.p.m n ` ] = # <X&._.C.m.B.L.|.}.^.}.E.E.",
"}.E.W.W.W.E.}.|.`.).*Xw s +.z.c ( - & ,.,.  5 q.5.u.p.r.[ 2 1 e.i.i.b c 1 2 ' p.8.9.9.4.8.b.M n W * & =.).^.A.L.n.S.L.}.^.}..XQ.",
"}.E.D.F.W.W.}.}./.[.*X% t +.W / x $ -.,.$ . d w.u.4.y.i.V 9 1 z.i.t.` / > 1 r.i.y.0.s.8.4.4.u.M / g # L %X`.B.n.n.n.B.A..X.X.X.X",
"}.E.D.F.F.F.D.J.K.'.*.w h >.W ( h t -.y - ) g.6.9.u.y.m V l > :.k.k./ ( o , V a.y.9.s.4.s.8.8.~ B _ * % %X'.|.S.S.H.B.E.oX.X.X.X",
"}.D.G.G.F.F.D.C.K.&.*.% - h W x h $ ;.$ O { f.5.7.3.m V B d < < 1 > 5 < < < > 9 r.6.9.4.s.s.4.p.b B = # <X[.M.L.S.H.G.E.Q.T.Q..X",
"D.D.D.D.S.G.B.C.K.`.&.q # $ = + + + + 7 o c.3.0.0.M V B g 4 4 = ; = 4 <  .+ ; $ * ) e.5.s.s.4.9.' ` W $ H '.+X}.S.L.}..X.XY.E.E.",
"E.E.}.D.B.N.N.C.K.X.*Xq % ,.s N x gX4 + c r.p.9.M ! B g $ : . bXbXDXBXsXwX= - U % $ 5 e.a.s.s.0.y.n ` = % &.^.}.}.OXY..X.XY.OXD.",
"E.E.E.D.G.N.B.A.^.`.&X% % ZXbXHXeXeXN + x.| f.6.M b ( .   & & nXDXBXgXyXpX6 $ p =...O 0 c.5.f.6.i.n c ) # q >XXX|.J.XX_.Y..XE.}.",
".XE.E.E.D.D.D.D.}.^.`.e # JXJXLXeXeXs = >.:.q.q.b W x * $ y % nXbXDXMXyXpXnX& % <X<X* 4 } e.e.e.t.| c ( & q X.`./.|.XX.XY.}.D.Z.",
"Q.E.!.E. XW.W.E.}._.>Xi q % t   O = 8 + + B ` [ v l g O #.=.% % rX_ s X * h & % =.P $ ; 4 0 | } z.` ( g * & % Y ,X^._..XY.+XA.B.",
"A.Y.E. XW.D.D.E.}.oX(.&.S # & & = O X + = + 5 o < 4 O X - =.-.q % % % & w # % G r w   ; + < < < < @ 4 = $ # w % % ,XXXY..XA.Z.B.",
"A.A.D.E.E.D.D.W.E.R.;X#X%X% % nX* ^ bX6 O HXvXFXBXwXsX<.X ,.].&X%X=X*.=X%X%X%X=X% # JXJXbXBXwX6X5X6 O nX= tXtX*.q &.^.:XY.m.Z.Z.",
"C.B.Z.D. XW.W.W.E.oX_.#X&.q 5XdX  dXLX= * ZXZXZXBXeXwXeX& % &X(.@XY A Z Z D %X%Xq q % s %.) 6XwXeX* * JX$ s f a q '._.^.A.Z.N.Z.",
"C.B.B.B.L. XW.E.oX-XR.@X2X# % % # & $ - $ & # & & $ $ - # % ,XR.D u u D A Z ,X@Xe % q % % & $ $ # w # $ $ & % q % >XY.E.m.Z.N.D.",
"A.B.B.B.S.S.D.E.E.V.:X$X&.2XY # % # & & & P a a w # & # I ,X(.~.@.:XT.R.;X:X(.#X&X&X%X=X=.=.,.f -.L a -.=.=.=.*.Y _.V.m.!.m.OXE.",
"L.B.B.B.B.S.D.E.E.:X;X(.&X&.=.=.=.2X#.#.I I I I ..-.1.=.=.@X$X-X.X.X^..XY.;X_._.`.Y D D L L S U p S L p G p S Z A A OXm.D.G.m.E.",
"}.L.A.B.B.D.D.}.Y.T._.R.D D Z e e i J p L p p p J p J e p S K -X.XV.V.Z.}.Y.XXXXT Z K Z S S a S J S Z Z i S Y @X_.:X}.D. XD.4X!.",
"E.E.E.D.D.D.}.}.oXY.-XT A D Z u e i -.a q i e e e e a e u e T._.Y.N.D.m.}.}.Y.Y..X_.(.,Xu K A J A J Z A A ,Xu R _..XL.P.G.D.Y.oX",
"!.E.E.E.}.}.}.}.E..X:XR..XR.#XD D u &.2XZ e i u i u u &X#X`.R..X}.D.m.D.m.E.oXE.Y.:XR.`.&.(.@.(.@X(.>X_.^.^._.oX.XA.L.P. X}.Q..X",
"Q.!.Q.E.}.}.}.E..XoXY.oX.XXX.X_.:X;X(.(.).&X'.#X(.#X;XR._.^.}.}.^.XXm.^.A.m.Y.E.!..X_._.`.>X.X;X$X,X_.^..X}..XE.E.D.P.S.D.A..X.X",
"~.Q.Q.Q..X.X}.E.oXY.Q.Q.}.}.}.E.Y.!.XX`.`.'.>X`._.-XT..X.X}.}.}..XY.XXA.A.A.Y.!.oXE.^.XX/.Y.Y.Y.$X$X_.^.}.E.E.E.E. XS.P.L.}.T.:X"
};
