/* XPM */
static char *a5632d034133456eababd8cf57338efeEdgX8LT8JQDuHYZA[] = {
/* columns rows colors chars-per-pixel */
"64 64 240 2 ",
"   c #020401",
".  c #010C01",
"X  c #0A0A09",
"o  c #001400",
"O  c #001B00",
"+  c #071609",
"@  c #141416",
"#  c #111410",
"$  c #221E1D",
"%  c #002200",
"&  c #012C00",
"*  c #08270B",
"=  c #063306",
"-  c #132A13",
";  c #0B3711",
":  c #163419",
">  c #12260D",
",  c #21301D",
"<  c #262D27",
"1  c #263827",
"2  c #373936",
"3  c #293F32",
"4  c #1F2A24",
"5  c #064B06",
"6  c #075307",
"7  c #0C4817",
"8  c #1B4719",
"9  c #0F540D",
"0  c #2A7D1B",
"q  c #2A5527",
"w  c #374839",
"e  c #365739",
"r  c #2D522F",
"t  c #2B7D24",
"y  c #2D7E2A",
"u  c #287825",
"i  c #327C2B",
"p  c #34772A",
"a  c #376539",
"s  c #3A7C35",
"d  c #2E7031",
"f  c #1D531D",
"g  c #43473E",
"h  c #437A39",
"j  c #3D3C41",
"k  c #3E4743",
"l  c #3D5143",
"z  c #3C6643",
"x  c #397D40",
"c  c #444344",
"v  c #434D43",
"b  c #4B4B4A",
"n  c #494648",
"m  c #465346",
"M  c #4D4D51",
"N  c #575757",
"B  c #504C50",
"V  c #466849",
"C  c #47794B",
"Z  c #53794B",
"A  c #4B7D52",
"S  c #59795B",
"D  c #556455",
"F  c #5D5E62",
"G  c #5C7E61",
"H  c #5F6269",
"J  c #686867",
"K  c #677B66",
"L  c #6D7A71",
"P  c #787977",
"I  c #716E70",
"U  c #60575C",
"Y  c #2C841D",
"T  c #29851A",
"R  c #31851E",
"E  c #378E1E",
"W  c #2D8424",
"Q  c #2D8922",
"!  c #2E822B",
"~  c #318424",
"^  c #338B25",
"/  c #33842C",
"(  c #39842B",
")  c #348B2B",
"_  c #398C2D",
"`  c #388D26",
"'  c #36932D",
"]  c #3A942D",
"[  c #3C992D",
"{  c #379625",
"}  c #2E8332",
"|  c #348533",
" . c #3A8533",
".. c #368A34",
"X. c #3B8B34",
"o. c #368B3B",
"O. c #3A8D3B",
"+. c #38863B",
"@. c #3C9434",
"#. c #3D9B34",
"$. c #35923C",
"%. c #3D943C",
"&. c #3E993B",
"*. c #369433",
"=. c #3EA136",
"-. c #3EA12A",
";. c #429A2F",
":. c #438D3C",
">. c #46873B",
",. c #429435",
"<. c #429C35",
"1. c #42943C",
"2. c #439B3B",
"3. c #499C3C",
"4. c #4B9A39",
"5. c #489235",
"6. c #43A135",
"7. c #45A23A",
"8. c #4AA23D",
"9. c #4AA638",
"0. c #41A22E",
"q. c #3C8544",
"w. c #368C43",
"e. c #3B8D43",
"r. c #3E8C4A",
"t. c #3F864C",
"y. c #3D9344",
"u. c #3D9944",
"i. c #3E9249",
"p. c #3E9549",
"a. c #3D934A",
"s. c #3E994B",
"d. c #369147",
"f. c #3D9751",
"g. c #438C44",
"h. c #44844B",
"j. c #4B854C",
"k. c #448D4B",
"l. c #4B8B4D",
"z. c #488645",
"x. c #538C4D",
"c. c #528749",
"v. c #419446",
"b. c #429445",
"n. c #499443",
"m. c #439A43",
"M. c #4A9B43",
"N. c #419549",
"B. c #42934B",
"V. c #4A944C",
"C. c #44994B",
"Z. c #4A9A4C",
"A. c #53954A",
"S. c #4B8552",
"D. c #4B8C53",
"F. c #4F8B59",
"G. c #488A53",
"H. c #538455",
"J. c #538B53",
"K. c #54845B",
"L. c #5B845C",
"P. c #548C5A",
"I. c #5B8A5A",
"U. c #459451",
"Y. c #4B9352",
"T. c #459B52",
"R. c #4A9A53",
"E. c #4E9359",
"W. c #539259",
"Q. c #549757",
"!. c #4AA341",
"~. c #47A041",
"^. c #5A8862",
"/. c #6A856B",
"(. c #73856D",
"). c #748373",
"_. c #7B837A",
"`. c #7A8878",
"'. c #7B947B",
"]. c #639466",
"[. c #60A161",
"{. c #609C52",
"}. c #83807D",
"|. c #829D7C",
" X c #7E7E82",
".X c #7E8C84",
"XX c #838483",
"oX c #8C8C8C",
"OX c #878887",
"+X c #918D8D",
"@X c #8B928C",
"#X c #899788",
"$X c #93998D",
"%X c #8D8E92",
"&X c #918C93",
"*X c #8E9293",
"=X c #8F9991",
"-X c #939394",
";X c #95959A",
":X c #9B9B9B",
">X c #979897",
",X c #A09E9F",
"<X c #97A69A",
"1X c #8AA78D",
"2X c #A1A59E",
"3X c #9D9CA2",
"4X c #9FA0A4",
"5X c #ADACAB",
"6X c #A6A8A6",
"7X c #ACB2AC",
"8X c #A5B6A6",
"9X c #B1B3AE",
"0X c #AEADB2",
"qX c #B1AEB3",
"wX c #B6AEB9",
"eX c #AFB1B3",
"rX c #B3B4B3",
"tX c #B4BAB6",
"yX c #B4B3B9",
"uX c #BBBBBB",
"iX c #BAB7B7",
"pX c #B2ACAE",
"aX c #BBC6BC",
"sX c #ADC2AB",
"dX c #BCE1B8",
"fX c #C3C5BE",
"gX c #C2DCBB",
"hX c #BCBBC2",
"jX c #C3BDC3",
"kX c #BCC5C3",
"lX c #CCCCCC",
"zX c #C7C8C6",
"xX c #D2CBCD",
"cX c #C7D3C8",
"vX c #CDCBD1",
"bX c #D3CDD3",
"nX c #D2D3D4",
"mX c #DAD7D8",
"MX c #D2D1D2",
"NX c #C3E1C9",
/* pixels */
"a.d.y.a.y.i.B.a.y.m.#.6.6.2.*.1.X.,.3.X...b.y.e.y.i.y.y.N.p.%.&.6.{ <.` / / | y O.O.y.p.a.p.a.y./ ( ~ ` { { -.=.u.y.d.a.y.y.i.i.",
"s.a.a.a.y.y.i.y.p.$.@.#.#.<.2.&.M.X./ ! | %.y.y.a.a.y.e.y.u.u.2.[ 9.T ~ / ( / n.e.y.v.p.a.y.y.y.n.t / ^ E 0.0.#.$.s.y.y.Z.N.e.B.",
"d.d.a.p.i.B.B.i.y.&.@.8.' <.&.m./ X.X.! | %.y.e.e.i.p.a.N.u.y.1.9.T R ^ ^  .b.v.N.N.N.p.y.y.p.v.O.1./ ) Q Y ;.6.2.O.y.v.O.y.C.y.",
"a.a.a.y.y.B.B.v.b.&.^ #.<.<.) ! ..! ! ..O.b.v.N.a.a.i.y.y.y.y.1.6.T ^ ^ ,.1.b.e.v.v.p.p.p.y.N.v.n.b.o.! W ^ ^ <.@.b.b.%.%.%.y.N.",
"a.a.p.y.y.v.B.N.%.2.7.[ <.W ) | | | ..y.v.u.y.N.p.i.i.i.y.u.b.&.;.<.R @.1.b.y.v.y.y.y.p.v.v.v.v.v.e.Z.u.W Q @.<.1.1.%.1.M.M.v.y.",
"d.y.y.y.v.y.y.v.b.2.' 7.^ Q ) | y e.C.N.y.y.y.e.y.d.B.N.v.v.1.@.<.;.<.2.X.%.C.y.y.y.p.p.v.v.v.g.C.v.e.N.u.&.8.@.@.%.M.2.W t O.Z.",
"p.a.p.v.v.O.| +...2.^ 9.T W ! O.C.y.o.y.v.%.p.p.B.i.y.e.| ..1.2.<.] !.*.m.u.e.a.a.a.p.p.v.v.v.g.%.y.Z.y.N.m.@.!.2.,.~ 0 ) / | y.",
"d.y.y.N.C.+.y | %.2.@.[ 7.^ @.%.%.C.v.v.u.u.C.y.y.y.y.O.y y ..@.<.6.' &.1.p.p.a.a.a.y.y.p.N.n.n.b.%.p.C.%.&.2.<.@.~ ~ ) ) | o.d.",
"p.y.y.v.O.| | +./ @.] 7.[ @.m.b.y.y.y.y.u.y.u.p.p.p.v.y...! / _ [ #.2.@.%.y.a.d.a.a.s.y.N.e.V.n.O.1.N.o.%.2.<.<.) ) ~ Y ! %.p.a.",
"p.a.y.v.v.y.+.! ! ) ^ 6.#.@.%.%.y.y.y.y.u.u.u.u.p.y.u.b.O./ ! ~ Q 6.#.&.N.a.B.p.a.d.a.C.Z.e.C.| 1.| ! u.%.&.<.<.^ W ^ 2.m.u.d.f.",
"a.a.p.y.v.C.e.} ! W Y 6.7.@.b.b.y.p.y.y.u.u.u.u.p.y.y.b.1.X./ W ^ =.' &.u.o.d.p.U.a.T.e.y.B.B.v.1.! ..! &.@.[ 7.2.&.@.&.%.%.d.a.",
"d.a.p.y.y.v.v.y.| W Q #.<.*.%.y.y.y.y.y.y.y.u.p.p.y.y.v.b.%.@.*.[ #.@.&.%.p.B.B.U.w.B.B.i.e.e.n.1.i | ! ,.#.[ #.@.2.m.$.$.p.p.d.",
"d.a.p.y.e.y.v.C.m.&.<.7.7.&.m.p.y.y.y.y.p.p.p.p.p.p.y.v.v.u.1.2.[ 6.2.@.%.C.V.k.q.Q.r.r.Y.B.B.V.n.s i :.0 [ [ 7.*.$.u.u.b.u.i.p.",
"p.d.y.p.y.y.y.y.%.@.<.#.#.*.u.y.y.i.i.y.p.p.p.i.y.y.N.N.y.y.%.&.#.6.<.X.n.g.k.k.E.k.k.U.k.k.r.k.x.A.d i ~ ^ <.#.2.u.y.y.u.e.y.B.",
"a.a.y.p.v.y.y.y.%.*.2.#.#.@.N.p.i.i.i.i.y.i.i.i.i.i.i.i.y.y.y.%.7.[ ] @.n.O.Y.d & x Y.t.k.E.k.l.O & Q.p ( ` T <.%.p.a.i.v.v.N.y.",
"a.a.p.p.y.y.y.p.u.@.2.#.2.@.1.y.y.i.i.y.y.i.i.i.B.a.i.y.y.v.v.%.#.[ <.X. .s l.O O O o C J.h.P.O O o j.x.X.^ 8.<.u.p.d.y.y.y.v.g.",
"u.u.p.y.i.i.i.p.N.*.2.#.<.@.M.| | e.v.y.y.v.v.y.v.y.B.e.e.B.p.b.@.<.] ~ X.p J.O % /.e o K S : o ).V o J.n.X.8.<.&.p.a.a.d.i.n.b.",
"%.u.y.i.i.i.i.p.$.&.@.8.@.,.~ / ! o.b.y.y.y.v.v.v.N.e.N.N.y.i.O.3.R 0 _ i >.z.8 e #XzX    X 1 aX_.`.O ].>.M.@.<.@.%.a.a.a.a.b.:.",
"u.u.y.i.i.i.p.u.m.*.2.2._ ) / / ! o.v.v.y.y.p.v.y.v.e.v.N.e.y.%.W ' _ t n.g.J.e K ).zX6XoXI :XF OX7X. % l.n.2.<.&.&.a.a.f.a.b.1.",
"u.u.y.y.i.i.p.u.&.*.2.2.W _ ~ / +.e.N.N.y.p.p.p.y.y.N.y.u.v.%.m.` Y W %.g.l.C z * m N g +X>XOXc g v - * j.g.1.!.2.&.y.a.a.i.y.v.",
"p.y.y.i.i.y.u.%.*.#.2.Q W ) y ..y.v.p.p.p.a.p.p.y.p.v.%.%.b.O.&.<.^ !.O.k.F.^.O w v P xXzXuX>XnXlXw v . S.Q.1.@.#.#.%.p.y.e.y.p.",
"i.i.i.i.y.y.%.%.&.*.7.T ) ! %.y.v.y.y.y.p.a.p.p.a.u.} ! ..X.1.1.#.#.X.Z.h.F.; . l P fXiXmXbXlX:XP 7Xw e A j.3.7.' #.&.u.y.y.a.a.",
"i.i.i.i.y.u.%.&.#.#.#.2.) 1.b.e.y.y.y.y.p.a.a.a.a.u.} y / / 1.3.<.3.1.Y.S.z o l w uXX   xXlXbXX # rXv w o J.n.<.[ #.@.X.e.N.s.d.",
"a.i.i.i.y.u.%.@.#.7.#.#.&.%.y.N.y.p.a.a.a.a.a.a.p.p.b.../ ~ i 4.,.4.g.j.K.O w w v aXiXI iXlX;XXXlXlX6X).O J.:.<.[ [ ) ~ | y.a.w.",
"a.a.e.y.Z.v.%.2.@.#.7.2.@.%.N.y.T.o.a.a.C.a.w.i.N.y.n.b.i  . .( >.>.x.H.r o .Xk b N -XP >X@ vX%XnXlX$X(.o c.,.4.6.E ^ ( i O.C.a.",
"w.p.B.i.e.! t ) ,.<.<.#.&.%.v.i.o.T.a.w.e.B.R.k.U.k.g.>.A.p >.h h c.Z C o + @Xk k n zXuX6X@ H nXlXcX).(.o c.4.;.` R R _ :.b.y.p.",
"d.p.B.N.y.| ! _ <.<.<.#.&.%.p.a.y.i.i.B.k.U.q.G.j.D.j.J.c.x.h h Z Z O o o kXkXX  XF >X*X-X< kXzX6Xm (.V O {.,.9.E Y ~ X.n.b.y.p.",
"p.p.i.B.y.| / ) @.<.<.#.2.%.y.a.B.U.U.t.E.G.F.P.I.H.I.V q 8 & % O o + `.L P nX  c b yX-X;X%XhXnXm w , o x.>.4.E ^ Y _ 1.g.b.n.y.",
"i.a.N.v.e.| i / ^ <.<.#.&.u.y.y.r.U.k.G.P.S.K.8 o o . O o : V (.(.`.).P @XzX7XrXM n N :X%X0XmXP w K * C A.A.3.Y R / %.C.y.v.C.%.",
"e.y.B.C.V.:.../ t _ @.@.&.%.u.y.k.G.F.F.C O o o #X=X#X`.`.).L `.P @XoX-XfXmX5XyXyXM F b 6XhXmXc v /.q W.V.,.3.<.) 1.N.i.i.i.y.b.",
"p.y.y.v.n.n.X.i ~ ~ _ @.&.%.u.y.E.D.C % o 1X1X#X@X>XOXoXXXtXoX>X;XoX:XiXlXfX:XrX5XuXM M 3XoXOXoX`.O S.h.b.2._ 8.1.m.a.d.a.y.O.n.",
"y.B.Z.v.g.g.:.X._ W ) 1.b.b.B.k.S.a O o 1X#X@XoX%X-X-X-X-X3X;X%X3Xn N oXn g n tXvXyXyXvXqX-X-X8X. ; l.V.%.~.<.@.1.%.d.f.a.d.v.y.",
"a.a.a.B.B.g.1.1.@.@.2.M.g.l.h.^.> . m @X*X*X*X-X&X+X;X;X&XoXN ;X;Xc n c c }.5XrXzXvXwXiXzX>XcX: o [.+.n.2.2.@.%.%.p.y.a.a.y.a.y.",
"a.a.a.a.B.v.1.1.@.!.2.n.g.P.e . . 2XoX-X%X;X-X;XI U J OX>XoX:X*XP n c b xXzXaX0XnXvXjXoX2XaXo O Q.i X.@.@.2.&.u.a.p.p.p.s.p.p.a.",
"a.a.i.B.v.b.%.&.&.&.1.:.j.& O o $XoXOX6X:X;X3X-X;Xc OX:X+XI n M  XOXqXtXmXlXrXeXvXlX:XOX#X. O z s s / _ <.' m.%.y.a.p.y.u.p.a.a.",
"y.y.y.y.v.u.%.%.2.&.n.A.& o > #X@X>XrXlXXXP yX5XOX,X>Xb OX-X&X-X;X3XrXlXlXfX2 4XnXoX@Xg /.O V H.W. .X.W _ !.2.%.y.y.p.%.y.p.y.a.",
"v.v.v.v.y.y.%.%.%.%.n.h o |.$X@X6XuXrXnXXXoX5XrXuXoX-X>XXX>X6XnXhX0XnXlXzXlXc c lX-Xm e o 8 P.F.q.+./ W ^ T ~.%.%.u.v.%.y.b.N.a.",
"b.b.v.v.y.y.u.u.Z.n.A.h o #X@XiX5XnX@ 2 P P iX9XiXtX7XnXnXzXmXxXmXbXc 6X5XuXlXn k v 1 O C C G.E.k.V.X.W W Q ) &.%.b.%.O.O.O.v.y.",
"b.b.v.v.v.y.v.v.e.Q.s L.'.$XrXpXuXvXX 2 n }.>XXX9X7X5X;X:XxXB n vXbXc w aX6XuXP c l z S.l.k.Y.k.B.O.%.<.^ ' / 1.$.n...| / | v.y.",
"v.v.v.v.B.k.k.k.D.a a '.#X9X5XwXqXc P $ g N oXP rX7XtXoX>XzXb c b b J v oX-XrXoXk w ^.h.k.R.w.U.B.y.1.X.<.' !.&.1.M./ / / ! n.y.",
"y.p.e.B.B.h.D.D.K.o 1X'.aXJ jXwXyX;XlX  n 2 J }.rXeX:X;XtXlXn n c X . 3 =X@XqXrX  1 L.G.B.y.B.B.i.N.%.@.<.#.2.%.1.b.| y / ..v.e.",
"a.s.i.e.U.D.j.K.; 1X#X=XP j yXwXeXeXlXc 2 b 2 N >XuX*X-XaXnXg g K + . + >XoXuX0XX o L.F.k.B.Z.w.i.C.&.@.<.#.2.1.1.y | / / 1.v.y.",
"f.w.T.k.h.G.].e - '.).tX# c I yXuXoXMXJ 2 X b g >XeX-XoX6XcX. - K o . v 2 >XoX6XrXo : P.G.Y.e.T.y.v.%.#.#.<.<.@.../ y  .:.%.v.i.",
"d.d.U.t.W.A C e ).`.7X# 2 n yXyX*X@XzXaX+   2 XXP rX@X=XcX- o Z Z o O 8X  >X-X-XaX- o K.S.Y.+.e.i.p.%.#.#.<.2.X./ X./ O.m.y.y.i.",
"U.B.r.Y.h.& * '.`.<XJ 2 I 6XyX%X@X8Xw o . S 3 `.XX7XzXzXK O q J.I.q % 8XtXI XXP 2XaXo O K.F.Q.Y.i.a.&.#.<.<.@.~ | / 1.1.O.C.i.d.",
"w.U.t.G.O O V /.<Xb :Xb P qXbX-XJ . : o G /.w `.P 9XzXcXo q j.A.A.p o =X5X2   OX).OXaXo * A G.r.i.a.%.@.<.<.) W y X.b.1.y.N.i.a.",
"Y.U.U.W.S.o O o o + < oX5XjXxX< 1 o S G G S - `._.9XcX. r c.Q.g.A.p O 8X;X X#   g L cXV . z D.U.i.a.%.@.<.#.W / i C.O.O.C.y.a.a.",
"B.k.k.h.G.P.H.S m . b n XXlX$ + * L.K.K.K.% o 8X7XcX. r L.j.O.m.1.>.O 8XtXnX  g . > cXcX3 . H.l.i.p.&.@.<.] W X.O.e.C.v.y.C.d.a.",
"p.C.i.g.k.D.D.H.o o v L < . o H.G.G.G.G.^.o o )..X. o S H.V.%.=.<.3.% o sXcXo D w D _.OXkXo ^.F.g.%.@.] 6.<.W / v.y.y.v.p.y.d.p.",
"y.y.y.N.n.g.g.J.% o w L . * A P.U.w.R.k.G.% * `.P 4 o ^.j.V.m.&.<.@.x.O K cX: o S > m _.tX+ V S.g./ ~ ^ ] <.2.m.u.y.y.p.p.a.a.p.",
"y.y.y.v.e.s s j.O = w /.O G A J.B.e.U.q.W.o O L _.nX< o H.h | 1.<.3.z.O . NXa ; L.O . .XtX<XO % V.| ~ ^ ^ @.2.1.v.y.y.y.p.i.a.p.",
"$.u.p.e.+.i s >.j.r r <Xo V P.h.r.B.Y.l.J.O o `.).7XfXgX% h p _ ` M.z.H.o O O I.A V o o cXcX% O k.O.) ~ ^ ' *.%.b.y.y.y.p.y.i.d.",
"y.p.v.b.:. . .>.c.z.Z dXO o j.V.B.B.r.l.C I.. o - sXcXgXo a z.( R ( >.h I.H.J.k.P.F.z o o sXO a U.v.X.W Y [ 2.m.%.y.y.y.y.y.i.a.",
"p.y.y.n.n. .i ( s >.8 o O & Y.V.Z.w.U.B.k.J.I.o o o . o O h h i ~ ,.>.5 5 9 5 k.t.F.^.G V % f j.k.e.m.2.<.8.@.t +.O.%.y.y.v.p.a.",
"a.y.e.v.b.X.~ ~ ( >.p J.j.l.g.y.a.a.i.B.Y.G.D.P.L.; O & j.l.z.M.3.,.:.>.9 5 f } i.G.C r A ].H.J.B.e.%.&.<.<.@./ | o.y.u.y.y.B.U.",
"d.p.B.g.n.n.,.,.5 5 p s z.l.V.y.a.w.T.i.r.k.G.G.F.j.P.h.W.k.A.1.,.<.M.( i :.! | e.U.7 7 7 7 5 9 k.B.y.@.<.,.W ) ! O.u.b.y.y.a.U.",
"a.a.a.B.v.1.1.,.6 6 5 9 5 5 R.o.o.a.w.T.e.i.d d G.k.G.G.k.e.v.%.2.#.^ / ( ( t %.y.U.t.E.d 7 5 g.a.i.u.@.2.^ ! / ! %.N.y.y.y.i.a.",
"a.a.B.B.v.1.1.<.<.@.:.s g.n.o.! o.o.i.y.B.R.5 5 5 6 9 = R.C.v.%.&.7.) W / 4.2.b.o.U.q.k.k.Q.e.e.B.N.m.1._ ^ ! ! O.N.b.y.y.v.a.a.",
"a.a.B.B.g.b.1.@.<.@.1.1.g.| } o.| y.v.Z.r.k.Y.q.d 6 u R.C.o.o.%.*.=.#.#.*.1.1.%.v.B.B.R.B.e.e.Z.e.y.%.*.Y _ ! %.N.m.u.%.y.N.a.p.",
"a.a.B.B.g.b.&.#.2.2.2.1.s  .! / | C.C.n.k.g.k.k.k.e.C.v.y | o.m.7.[ ' #.1.1.%.b.C.e.e.y.a.y.a.C.Z.y.1.,.^ ^ t $.u.y.y.y.v.p.i.i.",
"a.y.B.B.B.b.&.#.' <.) X./ ../ ..b.O.n.e.V.Y.k.V.Z.Z.O.C./ | / W =.=.#.*.%.v.Z.v.v.N.Z.p.y.y.a.p.e.u ,.<.@.,.2.%.y.e.y.p.p.y.y.d.",
"y.u.y.B.v.y.&.#.6.#./ X.t i ,.m.b.%.e.Z.B.q.Y.e.e.C.b...m.u / W Y [ 8.&.u.y.B.w.N.o.$.y.u.p.i.y.| ) ) 0 <.<.*.N.y.y.a.p.y.y.p.a.",
"%.y.v.v.v.b.&.#.#.Q _ / i M.1.@.u.u.o.w.B.B.w.B.B.N.O.Z.1.X./ ) Y ` @.*.N.a.B.a.p.s.u.$.$.a.y.e.%.~ ~ R R ,.M.O.v.i.a.p.y.y.a.p.",
"%.%.v.v.v.b.&.#.#.] W _ 3.,.,.1.$.$.u.C.d.B.e.B.N.y.m.$.%.@.@.~ ^ <.8.$.p.w.a.f.d.s.y.u.y.N.e.v.O.1.Y ^ ;.3.%.b.y.y.i.p.y.p.a.y."
};
