/* XPM */
static char *e4fa670c04b64a68bfac172829285168s0jdQ0LhV7KU6SlF[] = {
/* columns rows colors chars-per-pixel */
"64 64 239 2 ",
"   c #064C00",
".  c #0D5501",
"X  c #0C5908",
"o  c #135D02",
"O  c #185D03",
"+  c #135C0B",
"@  c #1B5E0B",
"#  c #0D5E13",
"$  c #135E14",
"%  c #185F11",
"&  c #0D6105",
"*  c #156203",
"=  c #1B6406",
"-  c #156904",
";  c #1C6A05",
":  c #14630B",
">  c #1B640B",
",  c #166A0C",
"<  c #1C6B0C",
"1  c #166212",
"2  c #1B6413",
"3  c #1C6C14",
"4  c #1C651B",
"5  c #1D6B1B",
"6  c #156A11",
"7  c #1D7113",
"8  c #1F731B",
"9  c #1F7A03",
"0  c #21650B",
"q  c #236B0D",
"w  c #23730C",
"e  c #2B7A0F",
"r  c #216514",
"t  c #236C13",
"y  c #286E14",
"u  c #226619",
"i  c #236C1C",
"p  c #296C1A",
"a  c #237214",
"s  c #2A7315",
"d  c #2B7B16",
"f  c #24721C",
"g  c #2B741C",
"h  c #2B7B1D",
"j  c #267919",
"k  c #31761D",
"l  c #327B1E",
"z  c #307F16",
"x  c #1D6D22",
"c  c #1B6A25",
"v  c #1E7122",
"b  c #236C22",
"n  c #256E29",
"m  c #276B24",
"M  c #257323",
"N  c #2B7423",
"B  c #2C7C23",
"V  c #23742B",
"C  c #2A722A",
"Z  c #2C7B2B",
"A  c #277A26",
"S  c #337624",
"D  c #337C23",
"F  c #397E26",
"G  c #337C2B",
"H  c #3A7E29",
"J  c #2D7A32",
"K  c #2B7A38",
"L  c #347F33",
"P  c #3C7F34",
"I  c #2D821D",
"U  c #298114",
"Y  c #33821E",
"T  c #338A1B",
"R  c #36981C",
"E  c #39A21E",
"W  c #2D8324",
"Q  c #2D822A",
"!  c #2A8628",
"~  c #338424",
"^  c #398325",
"/  c #338A24",
"(  c #3A8C25",
")  c #34842B",
"_  c #3B842C",
"`  c #358A2A",
"'  c #3C8C2B",
"]  c #3D9525",
"[  c #3C9C24",
"{  c #3D942C",
"}  c #3D9A2B",
"|  c #2F8534",
" . c #348533",
".. c #398432",
"X. c #358A33",
"o. c #3B8C33",
"O. c #358539",
"+. c #3C853B",
"@. c #368C3B",
"#. c #3B8C3D",
"$. c #3C9334",
"%. c #3D9B33",
"&. c #36903C",
"*. c #3C933D",
"=. c #3D993B",
"-. c #379335",
";. c #3DA225",
":. c #3EA129",
">. c #3BA728",
",. c #42A11F",
"<. c #418C2D",
"1. c #42872B",
"2. c #429C26",
"3. c #42942C",
"4. c #439B2C",
"5. c #449B2B",
"6. c #418633",
"7. c #428C34",
"8. c #428D3C",
"9. c #4A8E3C",
"0. c #439433",
"q. c #499435",
"w. c #459C33",
"e. c #4A9C34",
"r. c #42943D",
"t. c #4A943A",
"y. c #439B3C",
"u. c #4A9B3C",
"i. c #519D3C",
"p. c #51993C",
"a. c #43A223",
"s. c #43A22D",
"d. c #49A22E",
"f. c #45A233",
"g. c #4BA333",
"h. c #45A23A",
"j. c #4CA23B",
"k. c #4EAB38",
"l. c #52A43D",
"z. c #52AC3C",
"x. c #58AE3D",
"c. c #51AC36",
"v. c #5AB33E",
"b. c #56B33F",
"n. c #368C43",
"m. c #3C8D43",
"M. c #3C8E4A",
"N. c #318642",
"B. c #369143",
"V. c #3D9344",
"C. c #3E9943",
"Z. c #3D9349",
"A. c #3F9849",
"S. c #3D9450",
"D. c #428E44",
"F. c #458E4B",
"G. c #488E4A",
"H. c #408647",
"J. c #419546",
"K. c #429444",
"L. c #4A9444",
"P. c #439A44",
"I. c #4B9C45",
"U. c #429549",
"Y. c #43944A",
"T. c #49954B",
"R. c #449A4B",
"E. c #4A9B4C",
"W. c #529C44",
"Q. c #589E46",
"!. c #549C4A",
"~. c #599D4D",
"^. c #539645",
"/. c #449651",
"(. c #4A9452",
"). c #459952",
"_. c #4B9B51",
"`. c #489D5A",
"'. c #529C52",
"]. c #4CA342",
"[. c #4AA24C",
"{. c #46A341",
"}. c #53A443",
"|. c #59A544",
" X c #55AB43",
".X c #5AAC45",
"XX c #55A44A",
"oX c #5BA44A",
"OX c #5BAC4A",
"+X c #57AC4E",
"@X c #56B240",
"#X c #5AB244",
"$X c #5DB34B",
"%X c #5CBC4E",
"&X c #4AA352",
"*X c #4FA658",
"=X c #52A353",
"-X c #5DA352",
";X c #55AC54",
":X c #5CAC54",
">X c #5DAD5B",
",X c #52A259",
"<X c #5CB354",
"1X c #5CB45D",
"2X c #5AB459",
"3X c #61AC4C",
"4X c #62A64F",
"5X c #62B44D",
"6X c #62B948",
"7X c #64AD53",
"8X c #65AB57",
"9X c #64B354",
"0X c #6AB453",
"qX c #64BA53",
"wX c #6ABD53",
"eX c #66B45A",
"rX c #6AB459",
"tX c #64BC5D",
"yX c #6ABB5B",
"uX c #72B95B",
"iX c #5CB662",
"pX c #5EB963",
"aX c #63BB64",
"sX c #6ABC64",
"dX c #66BD69",
"fX c #66B969",
"gX c #72B962",
"hX c #6BC453",
"jX c #6AC45D",
"kX c #64C05B",
"lX c #73C75A",
"zX c #65C166",
"xX c #6AC263",
"cX c #6BC36C",
"vX c #6FCA68",
"bX c #72C46D",
"nX c #7BCA67",
"mX c #6DC672",
"MX c #72C771",
/* pixels */
"Z.M.).M.Z.A.B.V.V.V.P.-.=.w.] } =.C.J.Z./.m._.V.J.V.J.m.U.U.K.r.$.h.$.$.y.*.*.@.*.V.A.B.V.B.*.K.r.$.r.$.%.%.=.-.y.@.R.m.U.U.m.Y.",
"Y.Z.Y.m.U.V.V.R.A.V.*.$.0.w.4.w.-.*.J.n.Y.F.m.V.#.E.V.m.E.V.#.-.%.%.%.0.=.P.[.P.P.V.V.A.B.V.V.K.o.u.$.h.%.%.%.y.*.P.*.Y.U.m.E.M.",
"Y.Y.Z.M.R.B.V.V.X.*.*.{.%.} ] 4.{.P.J.U.Y./.m.K.V.*.V.A.m.K.P.r.} 4.w.f.{ 0.) Q J.V.B.R.m.J.V.V.*.].0.$.0.h.} y.-.P.K.#.#.R.U.B.",
"Z.U.V.V.U.m.V.Q & P.y.y.{ g.s.} / Q 5 V.m.U.E.K.P.V.R.R.V.R.Z r.f.4.] w.j.u.7 3 *.V.V.R.Z.V.Z.V.X.: }.OXf.} %.h.=.X.A V.R.@.@.R.",
"Z.Z.V.J.J.V.P.8 3 I.{ w.f.s.[ f./ B 5 ).Y.D.K.V.E.@.B.R.O.V.Z y.4.2.d.d.{ Y * A *.R.U.m.).Z.T.K.3 - $X}.w.f.w.w.y.` ) K.K.K.V.B.",
"A.Z.V.V.V.K.E.A 3 <X X} } s.[ [ I B x m.Y.K.#.;XaXmXB.B.U.V.A <X#X[ a.d.4./ a 7 r.P.m.m.U.Z.T.V.B < l.5X{ 4.j.{ w.& ) r.@.*.V.*.",
"V.V.Z.V.K.K.T.) : }.$Xg.4.:.;.s.W ) M O.Y.Y.K.;X1XdX@.R.V.V.Q  Xb.R 2.5.4.Y h 3 *.K.m.*XV.V.Z.V.3 d .X$Xe.w.w.w.~ , ) r.K.P.mX;X",
"B.V.U.V.T.m.8.o.3 q. Xf.s.[ ;.} I X.5 O.Y.m.P.*.aXaXV.A.@.R.Q XX@Xa.d.] f./ ~ a o.P.P.mXV.A.V.J.o.- .X.Xl.{ w.w.' < ) o.K.@.aXaX",
"B.B.U.n.Y.m.T.8.3 0.$X4.s.[ :.4.I o.4 D.D.m.P.*.aXaX&.R.V.J.A +X#X4.} 4.e.{ ~ < ` P.[.pXV.R.@.K.o.> qXj.5X0.e.0.7.3 B o.K.K.V.dX",
"&XB.U.U.).U.#.K.: 0. Xg.g.[ s.4.' f !.m.U.m.P.*.aXaXV.V.J.J.o.]. Xs.s.g.3.w.~ a $.P.P.pXR.*.V.K.o.> :X}.j.l.0.u.0., f E.*.J.V.1X",
"#.B.U.).m.T.T.K.3 u..X4.4.f.} 4.~ ) P.D.T.Y.*.*.aX1XR.V.U.m.K.) $X} w.{ e.e.a Q r.*.X.aXiX&.V.V.r.3 D 9X0.q.<.u.7.2 + E.#.J.V.*X",
"@.dXJ.M.Z.U.V.V.3 u.OXj.4.4.4.j.' G T.K.m.m.V.P.2XzXV.@.Y.#.K.) }.f.f.w.' ~ j j ) [.P.=.&.&.&XO.L.3 B t.|.0.q.> * 2 + +.D.R.#.V.",
"aXcX#.U.M.m.U.*.Q y. X#X4.3.e.3.~ Z #.m.T.V.V.*.MXpXV.R.#.K.D.: l.4.( ( ^ h * > ) @.#.V.R.B.V.P.o.) ) a - < o o > ..8...#.m.U.R.",
"sXaX*.J.U.Y.#.P.: 7 5X#X] e.0.' 7.L.Y.#.T.V.V.C.*.zXR.U.Y.D.4 f d T 5.d h * t.~.7...K.V.U.V.m.U.K.0.B , h > * t.oX6.G 4 O.K.U.#.",
"tX<XI.P.n.V.V.@.8 a $Xg.3.( ; * ~ : E.D.U.m.V.*.C.aX[.m.K.T.1 2 / 4.l.z ; o nX4XN 4 O.Y.m.U.M.T.#.I.0.I.u.l * W.rX_ 6.i ..#.J.R.",
"yXxX*.#.U.V.V.*.3 { l.e.3.o Y rXeX) 2 V.m.R.V.*.=.pXmX=Xm.Y.i i e.] 5.e - l g gXeXt 2 K.m.Y.Z.m.K.B 0.0.q.~ = Q.rXt.^.% b P.K.#.",
"tXkX*.P.V.V.J. .X.3 ; ( O 0 k 7XrX9XB Z P.@.V.V.=.[.1XaXK.Y.m i X.w.5.g.- q S _ 8X7X< L.O.K.E.m.K.B $. X.Xw.* ; 8X4X9.u i K.P.*.",
"%XyX;X*.R.R.#.#.f 7.s 0 0 0 k k ~ yX+XB r.K.@.P.*.P.1XaXr.L.b 4 X.{ 4.5.w > S S 6.7Xt., K.J.V.K.X.) j.$X Xj.d - 7X8X^.2 M K.X.P.",
"jX<XsXP.K.m.E.5 i t.t.= 0 q F F ' yX7X:Xf E.#.*.&.*.aXaX#.T.b b $.w.g.] l.* > 6.G 7XXX3 E.J.V.J.8._ , .X$X4.l.- o gX4X~.1 K.K.V.",
"tXtXtX*.P.#.J.8 3 u.q.^ o q   F l ~ D eX>XK.K.*.P.@.aXMX#.D.C + X.} d.4.3.u.2 1 G B XX3 Y.#.m.R.L.* a }.$X#X3.( = _ 8X..1 !. .K.",
"9XxXbX*.@.R.m.K.f u.q.i.s q = o < _ o...E.Z _.V.V.R.*.#.Y.T.n N y.#X5.5.I D L.  . 2 B B Y.m.T.D.8.t g l.#X X5.e.<.o ^.L.i b E.Y.",
"cXX.X.E.V.V.@. .: ~ 0.l.i.Y l . . > f 8.N M O.D.K.V.#.J.Y.D.C 2 u.@Xd.5.I D Y.'.+ + + G L _.m.D.K.2 t 0. X#X4.w.3.l < i 2 G +.T.",
"K.K.V.R.J.J.E.o., ' 3.w.5.e.d ( t r 2 S ..E.D.Y.m.K.V.K.Y.D.n i j.z.v.4.3.B Y.D.+.i + 2 b C T.D.8.2 s u.$X#X4.w.w.q.B 4 i +.Y.D.",
"V.B.U.m.U.K.#.r.3 < 5Xz.g.5.5./ D N u 2 N #.m.K.K.V.U.V.T.D.4 3 u.#Xv.4./ B Y.F.D.L.+.b 4 M m.T.L.i a 0.z.#Xg.w.w.B ) Z M b D.Y.",
"B.Z.).M.V.V.*.*.a < .X#X5.4.] 4.t.S ..4 1 1 O.D.U.m.U.K.Y.T.1 N w.#X#X3.{ B T.D.Y.D.K.o.M 4 J T.8.B a w.j. Xz.{ W W X. .@.D.K.Y.",
").M.n.Z.A.J.I.r.a ~ #X#Xd.2.d.T 7.L.G o.4 4 b #.E.V.m.U.D.'.G G u..Xx.e.' B D.Y.K.#.L...D.T.'.T.8.) f 7 w. Xw.f.! W *.K.J.Y.K.V.",
"M.S./.U._.O.r.3 a h .X#Xg.5.9 ] r.D.8.S L.#.$ b m.U.m.E.5 1 N t : |..X3.u.Z ).U.K.P.r.r.D.K.D.m.o.) ~ }.w.{ w.w.- ` K. .V.K.V.U.",
"`.N./.V.#.P.L.f t 0..X$X( g.s./ Q D.P.L.o.P.P.Y.V.E.U.#.+ i 2 > > = i.; , 5 # Y.m.P.#.K.Y.Y.Y.Y...) ' ~ e.e.j.` 3 3 J.V.U.U.m.V.",
"Z.Z.U.E.@.) : o h ^ i.3X|.3.3.h o.J.*. .K.@.#.K.U.K.m.P.bX_ t > p @ q s s 2 C T.K.[.cX .U.#.m.E.K.f _ ' ; ; * 0.3 : V.U.V.@.V.V.",
"U.m.T.Z o.D o > . q.^ oXu.}.q.~ Q m.R.P.K.K.*.K.J.J.O.K.:XgXD k u 2 t < W.8.T.m.#.@.aX:XP.m.,X# Z > s q t a t t.f 5 E.V.R.V.J.P.",
"Y.K.5 3 _ g 4X@ O @ 6.> > > s : M R.B.*.2XX.E.V.U.| x K.:XrXq.l S p g < W.K.m.U.J.*.sX;X#.E.x Z o.~ > s = 7.p.L.r.+ Y.V.U.E.@.@.",
"D.P.M t g Q.4XrXF g D _ t * < 3 | A.@.cXaX[.V.*.K.Z M ..sXu.l D > p t W.o.L.K.K.*.*.sXaXK.V.V v eXrXD q t 1.D W.8.E.U.m.R.O.cXzX",
"K.Y.i : ~ l 3X7Xt : ' e.e.3.' : v R.=.P.2XcX*.J.K.V 5 7.rXt.D > * { w.y.B P.@.P.@.*.cX1XP.K.5 >XeX~ ' ' o 0.^ q.q.*.E.A.V.*.tXkX",
"Y.K.b 1 l q 0X0X< o u.e.] ] ~ Q E.B.=.-.tXzXR.J.R.#.p ^ rXt.S 3 { w.w.W ` o.y.*.[.=.;XcX*.r.M XXqX( / 0.^ I 3.u.I.K.m.U.@.*.jX%X",
"D.T.i 1 D 1.0X7Xo o w.5.g.g.~ Q  .Y.*.y.yX;XcX#.T.#.i D 7XQ.+ > w.} j./ ` j r.P.@.V.aXaX*.P.A :X9X3.q.h a < e.a < K.m.E.B.=.jXvX",
"T.D.4 1 7.^ uX> o :X{ 3.5.4.` ) Y.Y.K.) bX1XaXJ.D.Y.f 7.t t t 7.w.4.j.W W r.P.#.P.V.@.1XaX#.N ..yXd u.t q q.q.h f E.U.m.V.P.kXqX",
"G.T.b 4 6._ oXt g f .X5Xg.3./  .E.+.#.I.X.MXaXK.D.T.4 _ _ < 2 7X$X] { ` ~ I.#.J.V.R.U.dXdX#.Z M 9X7X0.> = u.' ' 3 i D.m.U.P.yXh.",
"F.T.$ u _ t.o t _ 0.$X#Xx.4.u.B 4 Y.E.o.K.P.dXR.K.Y.L.f > t _ oX#X4.j./ B K.#.K.m.Y.V.m.#.E.b N 7XyXo a <.i.l D A 5 _.U.K.@.aXyX",
"F.G.m u S > g t.D u. X#X] f.{ B x D.Y.K.P.@.dX>XP.K.8.D t : G 3X#X} 4.` X.#.#.U.m.E.m.Y.Y.D.M B XXW.t < <.9X^ _ 3 5 Y.K.E.K.1XxX",
"G.D.i 4 7.2 p G ) $XnXz.#X4.w., 4 D.D.Y.@.R.dXaX#.8...i : 7.h OXz.z.4.` Q P.Y.U.T.n.U.Z.V.K.Y.o.i t > D 3X3X~ ~ f 5 V.K.#.P.aXtX",
"F.D.M G G 8.) o.` qXlXb.@X4.{ 7 5 #.Y.m.J.R.B.V.V.*.X. .r.g )  Xz.f.w.$.X.*.#.U.Z.M.B.U.V.J.J. .2 s > q.|..X~ ) f 5 P.V.P.@.aXtX",
"Y.D.B B ..r.r.X.W jXlXc.z.w.w.7 4 T.K.E.V.@.1XP.V.K.#.@.r.o.~  X Xf.w.y.) @.U.T.Z._.B.B.V.m.Y.O.o.: h e. X5XY B r.E.O.V.*.P.aXaX",
"K.@.X.~ K.r.P.A I qXhXv.#X4.4.h : D.T.K.V.B.aX;XV.V.V.Y.o.r.h .X$X] w.0.)  .K.m.@.U.V.A.V.V.U. .2 3 0.0.|.5X~ ) r.K.J.P.*.*.aXP.",
"V. .X.) L.8.Y.3 - wXhXc.$Xw.0.u.f #.m.m.R.V.aXP.K.K.V.Y.#.r.~ OX$Xj.}.q...M =XY.R.V.A.U.B.V.U.#.L ..7.0..X.X~ X.E.#.#.*.V.R.V.P.",
"U.O.) X.K.D.Y.5 < wX6X6X.X0.}.^ i 1 T.T.m.R.iXR.*.J.K.V.K.o.B 3.$Xw.0.t.7.N i 1  .K.V.V.V.V.U.m.D...t.q.3..X_ G Z 5 K.K.V.R.m.B.",
"U.#. .r.K.D.F.5 < wXwX] e._ < 7.G G Y.T.m.V.mXaXP.J.K.D.Y.N ~ u.|.9X' o.+ 2 4 4 i E.V.V.U.m./.m.'.i t p.e.i._ G L b Y.#.Y.m.).m.",
"U.J.*.r.T.D.G.4 o lXhXi.' < r p G +.Y.D.T.R.*.*.*.#.Y.(.T.1 o q <.q.o _ t @ S ....K.K.J.V.m.Y.Y.H.C @ s a = t b +.X 4 _.m.K.).M.",
"V.U.K.#.Y.D.(.i : ; w ; = q @ p u P T.U.V.R.B.P.V.J.Y.m.Y.G a = < ; g o @ 9...S G 1 @.P.m.).m.Y.(.m p = q > 2 N $ b Z #.K.Y.n./.",
"U.m.Y.Y.D.m.E.N o ; t . > q D p u P +.Y.A.A.B.A.U.m.D.Y.K.) $.w.3.e.d = D S 6...G f i #.K.m.U.Y.G.C @ 1.1.D G u 4 +.G  .J.V.A.n.",
"K.R.V.U.K.Y.#.I.u.u.u.~ s . _ _ r C +.m.B.B.Z.Z.Z.U.K.J.K.Q ` h.g.] 3.* l D N -X-X3 i K.K.Y.T.n.G.m g 1.p.0 r 2 +.L G ) @.*.R.Z.",
"J.V.V.E.m.J.*.r.u.B u.i.* OXoX_ @ i +.m.E.V.A.B.Z.U.K.K.*.W ! } g.R g.w = k H ~.L...4 T.V.m.U.U.T.i > l 3.y o G ..8X8X) o.#.m.E.",
"B.J.V.@.R.V.*.*.B ~ u.0.< e.qXg 9.2 4 ..V.@.R.A.U.m.Y.K.*.*.{.%.[ g.g.Y * y F Q.-XG N 5 T.#.#.T.#.E.h D .Xs q > ~.W.oXD 3 I.m.U.",
"V.A.1X&XR.V.*.-.W ` 0.w.w & qX0XS S t ..P.P.V.B.U.m.Y.V.r.y.{.%.s.[ 4.l.* s t Q.~.M S 4 Y.E.V.V.V.@.) ' ' 5X}.> W.Q.oXoXo ..L.D.",
"A.@.mXcX@.P.*.*.` W wX4.( ; j.OXy H t f  .K.B.V.J.V.K.#.r.` W } :.s.} ] l.o < S -X~.8.Z 5 J.K.V.R.*.$.h 9X.X|.; = D Q.^.~.S T.+.",
"B.C.pX1X@.C.*.P.X.]. Xg.] U - .X9Xg s X.X.K.R.V.V.V.J.*.P.Q W h.>.R s.w.{ q.O @ 6.Q.-XL Z E.m.V.V.@.r.` OX.Xl.3.s > _ W.L.L.C T.",
"V.A.pXaXP.*.R.6 7 ].#X5.4.4.U w.oXD ^ g X.r.@.J.V.V.R.*.*.Q W %.;.>.;.f.0.<.7.p r 8.!.=XK.#.K.U.iXaX*.Q .XOX3XY ^ t < t G G +.+.",
"B.V.pXaX*.P.*.f 3 }.#X4.5.2.w.; oX4Xt ' B *.J.V.J.V.J.V.K.Q W %.;.>.;.} w.0.t.G 2 4 4 D.#.K.U.U.dX=X@.3 XXqX|.( ~ o.i i i O.J Y.",
"B.A.pXcX*.r.P.5 5 ` e.5.d.4.w.~ t 7XXX, ) Q *.U.J.V.J.K.*.Q ` %.>.E >.4.w.~ 0.7.8.i $ #.Y.K.m.U.dX#.: f W..X5X' _ o.I.b $ 5 O.m.",
"B.V.zXtXX.K.#.Z f ' .Xx.2.g.{ W ` I.W.:XA L.V.#.V.V.V.K.*.Q $.4.>.R s.} w.j 0.L..... .K.#.Y.T.Y.fXI.o.3 :X+Xq./ ) )  .K.n.V T.m.",
"R.A.P.zX<Xr.m.#.5 Q j.v.] g.w.` Q *.r.Q ) *.V.E.V.J.V.K.*.Q 0.4.;.E s.[ { I r.r. .@.#.R.m.K.U.K.fXXXL.: f eXq.u.7.r.K.m.M.Y.V.V.",
"Z.A.| 1XtX*.Y.K.#.X.( 6Xd.s.0.=.Q P.I.@. .#.V.#.V.V.V.J.*.Q 0.4.;.a.;.4./ / r.*.P.#.@.U.U.V.m.K.tX9Xo.f : 9X0.) B r.Y.c K Y.K.K.",
"B.V.V.tX;X*.U.U.K.X.I #Xz.} y.=.| *.O.#.#.#.U.U.Z.V.V.V.*.Q o.4.;.a.[ f./ / *.C.*.A.R.B.m.U.U.V.eXqX$.f 6 +X}.) ) K.m.V K U.J.K.",
"Z.V.X.xXaX*.R.m.V.r./ #Xz.4.y.*.Q B.V.R.V.Y.R.U.A.V.V.V.r.W / 5.a.,.a.s./ W =.V.V.B.V.V.U.T.M.K.qX5X0.` & <X}.~ B #.Y.c n Y.@.K.",
"B.R.C.$.-.P.A.Z.U.*.I s.k.4.=.*.V.A.V.@.Y.V.M.U.A.B.V.V.r.W ~ 5.a.,.a.] / W P.*.V.B.A.B.Z.Z.M.P.qXkX$.W X.+X}.{ ~ r.T.c (.m.T.8."
};
